<?xml version="1.0" encoding="UTF-8"?>
<svg xmlns="http://www.w3.org/2000/svg" xmlns:xlink="http://www.w3.org/1999/xlink" width="125pt" height="125pt" viewBox="0 0 75 75.446" version="1.1">
<g id="surface1">
<path style="fill-rule:evenodd;fill:rgb(100%,100%,87.799072%);fill-opacity:1;stroke-width:2;stroke-linecap:butt;stroke-linejoin:round;stroke:rgb(0%,0%,0%);stroke-opacity:1;stroke-miterlimit:10;" d="M 324 368.000687 C 324 387.8835 307.882812 404.000687 288 404.000687 C 268.117188 404.000687 252 387.8835 252 368.000687 C 252 348.117875 268.117188 332.000687 288 332.000687 C 307.882812 332.000687 324 348.117875 324 368.000687 " transform="matrix(1,0,0,-1,-250.5,405.946)"/>
<path style="fill:none;stroke-width:3;stroke-linecap:butt;stroke-linejoin:round;stroke:rgb(100%,64.698792%,0%);stroke-opacity:1;stroke-miterlimit:10;" d="M 286.035156 403.946 C 286.035156 403.946 286.035156 403.946 284.992188 402.60225 C 283.953125 401.2585 281.871094 398.567094 279.398438 396.547562 C 276.929688 394.531937 274.066406 393.180375 271.003906 390.442094 C 267.9375 387.707719 264.667969 383.578812 264.136719 379.879594 C 263.605469 376.180375 265.8125 372.91475 265.976562 369.336625 C 266.140625 365.762406 264.261719 361.879594 264.257812 358.274125 C 264.253906 354.66475 266.128906 351.332719 267.0625 349.66475 C 268 348.000687 268 348.000687 268 348.000687 " transform="matrix(1,0,0,-1,-250.5,405.946)"/>
<path style="fill-rule:evenodd;fill:rgb(100%,64.698792%,0%);fill-opacity:1;stroke-width:2;stroke-linecap:butt;stroke-linejoin:round;stroke:rgb(0%,0%,0%);stroke-opacity:1;stroke-miterlimit:10;" d="M 299.488281 402.117875 L 279.507812 382.141312 L 302.140625 359.516312 L 322.117188 379.488969 C 318.527344 390.153031 310.152344 398.524125 299.488281 402.117875 Z M 299.488281 402.117875 " transform="matrix(1,0,0,-1,-250.5,405.946)"/>
<path style="fill-rule:evenodd;fill:rgb(0%,0%,0%);fill-opacity:1;stroke-width:2;stroke-linecap:butt;stroke-linejoin:round;stroke:rgb(0%,0%,0%);stroke-opacity:1;stroke-miterlimit:10;" d="M 302.140625 370.828812 L 318.472656 387.16475 " transform="matrix(1,0,0,-1,-250.5,405.946)"/>
<path style="fill-rule:evenodd;fill:rgb(0%,0%,0%);fill-opacity:1;stroke-width:2;stroke-linecap:butt;stroke-linejoin:round;stroke:rgb(0%,0%,0%);stroke-opacity:1;stroke-miterlimit:10;" d="M 290.828125 382.141312 L 307.160156 398.47725 " transform="matrix(1,0,0,-1,-250.5,405.946)"/>
<path style="fill-rule:evenodd;fill:rgb(100%,100%,100%);fill-opacity:1;stroke-width:2;stroke-linecap:butt;stroke-linejoin:round;stroke:rgb(0%,0%,0%);stroke-opacity:1;stroke-miterlimit:10;" d="M 279.507812 382.141312 C 282.632812 385.266312 287.695312 385.266312 290.820312 382.141312 C 293.945312 379.016312 293.945312 373.953812 290.820312 370.828812 C 293.945312 373.953812 299.011719 373.953812 302.136719 370.828812 C 305.257812 367.703812 305.257812 362.637406 302.136719 359.512406 L 268.195312 348.199906 Z M 279.507812 382.141312 " transform="matrix(1,0,0,-1,-250.5,405.946)"/>
<path style="fill-rule:evenodd;fill:rgb(100%,64.698792%,0%);fill-opacity:1;stroke-width:2;stroke-linecap:butt;stroke-linejoin:round;stroke:rgb(0%,0%,0%);stroke-opacity:1;stroke-miterlimit:10;" d="M 285.164062 353.856156 C 285.164062 360.106156 280.097656 365.172562 273.851562 365.172562 L 268.195312 348.199906 Z M 285.164062 353.856156 " transform="matrix(1,0,0,-1,-250.5,405.946)"/>
<path style="fill:none;stroke-width:2;stroke-linecap:butt;stroke-linejoin:round;stroke:rgb(0%,0%,0%);stroke-opacity:1;stroke-miterlimit:10;" d="M 324 368.000687 C 324 387.8835 307.882812 404.000687 288 404.000687 C 268.117188 404.000687 252 387.8835 252 368.000687 C 252 348.117875 268.117188 332.000687 288 332.000687 C 307.882812 332.000687 324 348.117875 324 368.000687 " transform="matrix(1,0,0,-1,-250.5,405.946)"/>
</g>
</svg>
