<?xml version="1.0" encoding="UTF-8" standalone="no"?>
<svg
   xmlns:dc="http://purl.org/dc/elements/1.1/"
   xmlns:cc="http://creativecommons.org/ns#"
   xmlns:rdf="http://www.w3.org/1999/02/22-rdf-syntax-ns#"
   xmlns:svg="http://www.w3.org/2000/svg"
   xmlns="http://www.w3.org/2000/svg"
   viewBox="0 0 60 60"
   height="60"
   width="60"
   xml:space="preserve"
   version="1.1"
   id="svg2"><metadata
     id="metadata8"><rdf:RDF><cc:Work
         rdf:about=""><dc:format>image/svg+xml</dc:format><dc:type
           rdf:resource="http://purl.org/dc/dcmitype/StillImage" /></cc:Work></rdf:RDF></metadata><defs
     id="defs6"><clipPath
       id="clipPath16"
       clipPathUnits="userSpaceOnUse"><path
         id="path18"
         d="M 2,46 2,2 24,24 46,2 46,46 2,46 Z" /></clipPath></defs><g
     transform="matrix(1.25,0,0,-1.25,0,60)"
     id="g10"><g
       id="g12"><g
         clip-path="url(#clipPath16)"
         id="g14"><g
           transform="translate(12,24)"
           id="g20"><path
             id="path22"
             style="fill:#808080;fill-opacity:1;fill-rule:nonzero;stroke:none"
             d="m 0,0 c 0,-6.627 5.373,-12 12,-12 6.627,0 12,5.373 12,12 C 24,6.627 18.627,12 12,12 5.373,12 0,6.627 0,0 M 12,20 C 23.046,20 32,11.046 32,0 32,-11.046 23.046,-20 12,-20 0.954,-20 -8,-11.046 -8,0 -8,11.046 0.954,20 12,20" /></g></g></g><g
       transform="translate(46,10.7031)"
       id="g24"><path
         id="path26"
         style="fill:#808080;fill-opacity:1;fill-rule:nonzero;stroke:none"
         d="m 0,0 -16.689,11.021 2.834,-13.854" /></g></g></svg>