<?xml version="1.0" encoding="UTF-8" standalone="no"?>
<svg
   xmlns:dc="http://purl.org/dc/elements/1.1/"
   xmlns:cc="http://creativecommons.org/ns#"
   xmlns:rdf="http://www.w3.org/1999/02/22-rdf-syntax-ns#"
   xmlns:svg="http://www.w3.org/2000/svg"
   xmlns="http://www.w3.org/2000/svg"
   viewBox="0 0 60 60"
   height="60"
   width="60"
   xml:space="preserve"
   version="1.1"
   id="svg2"><metadata
     id="metadata8"><rdf:RDF><cc:Work
         rdf:about=""><dc:format>image/svg+xml</dc:format><dc:type
           rdf:resource="http://purl.org/dc/dcmitype/StillImage" /></cc:Work></rdf:RDF></metadata><defs
     id="defs6"><clipPath
       id="clipPath20"
       clipPathUnits="userSpaceOnUse"><path
         id="path22"
         d="M 0,48 48,48 48,0 0,0 0,48 Z" /></clipPath></defs><g
     transform="matrix(1.25,0,0,-1.25,0,60)"
     id="g10"><g
       transform="translate(32,18)"
       id="g12"><path
         id="path14"
         style="fill:#808080;fill-opacity:1;fill-rule:nonzero;stroke:none"
         d="m 0,0 2,0 10,-10 -4,-4 -10,10 0,2 -2,2 2,2 2,-2 z" /></g><g
       id="g16"><g
         clip-path="url(#clipPath20)"
         id="g18"><g
           transform="translate(19,40)"
           id="g24"><path
             id="path26"
             style="fill:#808080;fill-opacity:1;fill-rule:nonzero;stroke:none"
             d="m 0,0 c -6.075,0 -11,-4.925 -11,-11 0,-6.075 4.925,-11 11,-11 6.075,0 11,4.925 11,11 C 11,-4.925 6.075,0 0,0 m 15,-11 c 0,-8.285 -6.716,-15 -15,-15 -8.285,0 -15,6.715 -15,15 0,8.285 6.715,15 15,15 8.284,0 15,-6.715 15,-15" /></g><g
           transform="translate(14,28)"
           id="g28"><path
             id="path30"
             style="fill:#808080;fill-opacity:1;fill-rule:nonzero;stroke:none"
             d="m 0,0 10,0 0,-4 2,0 0,10 -2,0 0,-4 -10,0 0,4 -2,0 0,-10 2,0 0,4 z" /></g></g></g></g></svg>